<?xml version="1.0" encoding="UTF-8"?>
<svg id="Layer_2" data-name="Layer 2" xmlns="http://www.w3.org/2000/svg" viewBox="0 0 165.04 165.04">
  <defs>
    <style>
      .cls-1 {
        fill: #00489e;
      }

      .cls-2 {
        fill: #fff;
      }
    </style>
  </defs>
  <g id="Layer_1-2" data-name="Layer 1">
    <rect class="cls-1" width="165.04" height="165.04"/>
    <g>
      <path class="cls-2" d="M118.65,54.11c-.09-.99-.2-1.98-.34-2.95-.14-.99-.3-1.98-.49-2.96-.32-1.66-.71-3.32-1.19-4.94-.72-2.41-1.66-4.78-2.93-6.96-1.1-1.89-2.44-3.58-4.22-4.85-.4-.28-.82-.54-1.25-.77-2.5-1.31-5.4-1.57-8.11-.83-2.52.7-4.82,2.25-6.48,4.24-1.25,1.5-2.16,3.3-2.46,5.24-.21,1.36-.16,2.79.11,4.14.56,2.79,2.36,5.79,2.36,5.79h0c4.95,8.47,19.39,33.16,19.39,33.16,1.04-1.77,1.94-3.61,2.71-5.51,2.85-7.03,3.59-15.19,2.91-22.8"/>
      <path class="cls-2" d="M45.11,79.49c-.82.57-1.62,1.16-2.39,1.77-.79.61-1.56,1.25-2.32,1.9-1.28,1.11-2.52,2.27-3.69,3.5-1.73,1.83-3.32,3.82-4.57,6.01-1.08,1.9-1.89,3.9-2.1,6.08-.05.49-.06.98-.04,1.47.11,2.82,1.33,5.47,3.33,7.44,1.86,1.84,4.36,3.06,6.91,3.5,1.92.34,3.93.22,5.76-.49,1.28-.5,2.5-1.25,3.54-2.16,2.14-1.88,3.84-4.93,3.84-4.93h0c4.87-8.52,19.06-33.35,19.06-33.35-2.05-.02-4.1.12-6.13.4-7.51,1.04-14.95,4.47-21.21,8.86"/>
      <polygon class="cls-2" points="77 94.79 89.14 73.6 101.32 94.75 77.1 94.75 77 94.79"/>
      <path class="cls-2" d="M134.23,119.36c-.67-1.83-1.77-3.52-3.29-4.75-1.07-.87-2.33-1.55-3.64-1.99-1.3-.44-2.78-.66-3.97-.77h-40.64c1,1.79,2.15,3.49,3.4,5.11,4.65,6,11.33,10.74,18.25,13.97.91.42,1.82.82,2.73,1.19.93.38,1.86.74,2.8,1.07,1.6.56,3.23,1.06,4.87,1.45,2.45.59,4.96.97,7.49.96,2.19,0,4.32-.31,6.32-1.21.44-.2.88-.44,1.29-.7,2.39-1.5,4.08-3.88,4.79-6.6.67-2.53.48-5.3-.41-7.74"/>
    </g>
  </g>
</svg>