<?xml version="1.0" encoding="UTF-8"?>
<svg id="Layer_2" data-name="Layer 2" xmlns="http://www.w3.org/2000/svg" viewBox="0 0 191.6 67.94">
  <defs>
    <style>
      .cls-1 {
        fill: #00489e;
      }
    </style>
  </defs>
  <g id="Layer_1-2" data-name="Layer 1">
    <g>
      <g>
        <path class="cls-1" d="M91.84,31.13l-2.68-6.41h-7.77l-2.24,6.41h-3.32l9.94-23.23h3.09l10.28,23.23h-7.3ZM84.99,14.47l-3.02,8.48h6.52l-3.49-8.48Z"/>
        <path class="cls-1" d="M106.84,17.34c.23-.37.53-.72.92-1.04.95-.76,2.19-1.14,3.73-1.14,1.67,0,3,.44,3.97,1.32.32.3.55.61.7.92.15.31.27.77.36,1.37.36-1.25.97-2.16,1.82-2.73.85-.58,2-.87,3.44-.87,1.95,0,3.39.52,4.34,1.56.41.46.69.99.87,1.58.17.59.25,1.39.25,2.41v10.42h-6.11v-10.15c0-.88-.02-1.52-.07-1.94-.04-.42-.12-.75-.24-1-.11-.23-.29-.42-.53-.55-.24-.14-.5-.21-.8-.21-.84,0-1.48.46-1.93,1.37-.45.91-.68,2.21-.68,3.9v8.59h-6.11v-10.25c0-1.38-.12-2.34-.36-2.86-.24-.52-.67-.78-1.31-.78-.43,0-.82.14-1.17.42-.35.28-.63.65-.83,1.11-.2.46-.35.98-.44,1.54-.09.57-.14,1.31-.14,2.23v8.59h-6.11v-15.58h5.7v3.43c.25-.72.49-1.26.71-1.63"/>
        <path class="cls-1" d="M134.6,27.11c0,1.98.89,2.98,2.68,2.98.66,0,1.18-.18,1.58-.54.4-.36.59-.84.59-1.44s-.18-1.05-.54-1.35c-.36-.3-1.04-.58-2.04-.83l-1.83-.48c-.88-.25-1.56-.47-2.04-.66-.48-.18-.92-.44-1.32-.76-1.09-.9-1.63-2.08-1.63-3.53,0-1.66.62-2.98,1.87-3.95,1.24-.97,2.95-1.45,5.12-1.45,2.9,0,4.93.79,6.11,2.35.32.42.54.81.66,1.18.13.37.21.79.26,1.25h-4.31c-.05-1.13-.27-1.96-.66-2.48-.4-.52-1.02-.78-1.88-.78-.63,0-1.15.17-1.56.52-.41.35-.61.79-.61,1.32s.2.92.61,1.25c.41.32,1.06.61,1.97.86l1.87.48c1.72.44,2.97,1.06,3.77,1.87.79.81,1.19,1.87,1.19,3.19,0,1.73-.63,3.08-1.88,4.05-1.26.97-3.01,1.45-5.28,1.45s-4.12-.42-5.36-1.26c-1.24-.84-1.89-2.06-1.93-3.65h4.61v.42Z"/>
        <path class="cls-1" d="M157.57,15.54v1.73h-3.97v9.04c0,1.25.13,2.1.41,2.56.27.46.8.69,1.6.69.5,0,1.18-.14,2.04-.41v1.73c-.72.21-1.49.36-2.29.47-.8.1-1.6.16-2.39.16-1.11,0-2.02-.13-2.75-.4-.73-.26-1.31-.7-1.76-1.3-.2-.25-.37-.52-.51-.8-.13-.28-.24-.58-.32-.92-.08-.33-.14-.72-.17-1.14-.03-.43-.05-.92-.05-1.47v-8.21h-2.07v-1.73h2.07v-3.95l6.21-1.49v5.44h3.97Z"/>
        <path class="cls-1" d="M169.09,17.24c-.28-.48-.75-.73-1.41-.73-.88,0-1.46.44-1.73,1.32-.07.21-.11.46-.14.76-.02.3-.04.79-.07,1.45h-5.94c.05-1.45.64-2.63,1.8-3.53,1.22-.97,3.27-1.45,6.14-1.45,3.35,0,5.6.65,6.75,1.94.45.46.77,1.04.95,1.75.18.7.27,1.66.27,2.86v9.52h-5.8v-3.19c-.39,1.29-1,2.23-1.83,2.8-.84.58-2,.87-3.49.87-1.76,0-3.13-.41-4.11-1.23-.97-.82-1.46-1.96-1.46-3.41s.42-2.55,1.25-3.34c.84-.8,2.17-1.34,4-1.65.59-.11,1.28-.2,2.09-.24.8-.05,1.85-.08,3.14-.1v-1.91c0-1.18-.14-2.01-.42-2.49M166,23.94c-.51.59-.76,1.47-.76,2.65,0,1.91.61,2.87,1.83,2.87.57,0,1.06-.24,1.48-.71.42-.47.68-1.11.8-1.92.05-.35.09-.86.12-1.54.03-.68.05-1.46.05-2.34h-1.09c-1.11.07-1.92.4-2.43.99"/>
        <path class="cls-1" d="M79.01,59.04v-23.1h8.76c.97,0,1.84.02,2.6.07.76.05,1.43.12,2.02.23.59.1,1.11.24,1.58.42.46.17.9.39,1.31.64.86.53,1.54,1.28,2.04,2.25.5.97.75,2.07.75,3.29,0,4.69-3.11,7.03-9.33,7.03h-3.02v9.18h-6.69ZM89.11,47.82c.51-.18.92-.48,1.24-.9.32-.42.54-.95.68-1.61.14-.66.2-1.46.2-2.41,0-2.01-.38-3.42-1.15-4.22-.34-.35-.76-.59-1.27-.75-.51-.15-1.21-.22-2.09-.22h-1.02v10.39h1.56c.72,0,1.34-.09,1.85-.28"/>
        <path class="cls-1" d="M111.42,59.04v-3.98c-.18.81-.38,1.42-.59,1.84-.22.42-.54.82-.97,1.21-.99.88-2.34,1.32-4.04,1.32-1.02,0-1.92-.16-2.71-.48-.79-.32-1.43-.8-1.9-1.42-.39-.48-.66-1.04-.81-1.68-.16-.63-.24-1.49-.24-2.58v-9.8h6.21v10.11c0,.81.03,1.43.08,1.87.06.44.16.79.32,1.04.29.53.76.8,1.39.8.45,0,.87-.14,1.26-.42.38-.28.69-.65.92-1.11.23-.48.38-1.05.47-1.7.09-.65.13-1.48.13-2.49v-8.1h6.21v15.58h-5.73Z"/>
        <path class="cls-1" d="M127.3,45.26c.23-.37.53-.72.92-1.04.95-.76,2.19-1.14,3.73-1.14,1.67,0,3,.44,3.97,1.32.32.3.55.61.7.92.15.31.27.77.36,1.37.36-1.25.97-2.16,1.82-2.74.85-.58,2-.86,3.44-.86,1.95,0,3.39.52,4.34,1.56.41.46.7.99.87,1.58.17.59.25,1.39.25,2.41v10.42h-6.11v-10.14c0-.88-.02-1.52-.07-1.94-.04-.42-.12-.75-.24-1-.11-.23-.29-.42-.53-.55-.24-.14-.5-.21-.8-.21-.84,0-1.48.46-1.93,1.37-.45.91-.68,2.21-.68,3.9v8.59h-6.11v-10.25c0-1.39-.12-2.34-.36-2.86-.24-.52-.67-.78-1.31-.78-.43,0-.82.14-1.17.41-.35.28-.63.65-.83,1.11-.2.46-.35.98-.44,1.54-.09.57-.14,1.31-.14,2.23v8.59h-6.11v-15.58h5.7v3.43c.25-.72.49-1.26.71-1.63"/>
        <path class="cls-1" d="M157.4,46.23c.88-2.1,2.6-3.15,5.16-3.15,2.19,0,3.88.72,5.06,2.15,1.18,1.43,1.76,3.49,1.76,6.16s-.58,4.61-1.75,6.01c-1.16,1.4-2.83,2.09-5.01,2.09-2.49,0-4.18-.98-5.09-2.94v11.39h-6.21v-24.48h6.07v2.77ZM158.21,46.75c-.52,1.06-.78,2.59-.78,4.57s.26,3.51.8,4.57c.53,1.06,1.28,1.59,2.26,1.59.86,0,1.48-.47,1.85-1.4.37-.94.56-2.5.56-4.69s-.15-3.65-.44-4.57c-.16-.51-.41-.91-.76-1.21-.35-.3-.75-.45-1.2-.45-1,0-1.75.53-2.27,1.59"/>
        <path class="cls-1" d="M175.93,55.03c0,1.99.89,2.98,2.68,2.98.66,0,1.18-.18,1.58-.54.4-.36.59-.84.59-1.44s-.18-1.05-.54-1.35c-.36-.3-1.04-.58-2.04-.83l-1.83-.48c-.88-.25-1.56-.47-2.04-.66-.48-.18-.92-.44-1.32-.76-1.09-.9-1.63-2.08-1.63-3.53,0-1.66.62-2.98,1.87-3.95,1.25-.97,2.95-1.45,5.12-1.45,2.9,0,4.93.79,6.11,2.35.32.42.54.81.66,1.18s.21.78.25,1.25h-4.31c-.04-1.13-.27-1.96-.66-2.48-.4-.52-1.02-.78-1.88-.78-.63,0-1.15.17-1.56.52-.41.35-.61.79-.61,1.32s.2.92.61,1.25c.41.32,1.06.61,1.97.87l1.87.48c1.72.44,2.98,1.06,3.77,1.87.79.81,1.19,1.87,1.19,3.19,0,1.73-.63,3.08-1.88,4.05-1.26.97-3.01,1.45-5.28,1.45s-4.12-.42-5.36-1.26c-1.24-.84-1.89-2.06-1.93-3.65h4.62v.42Z"/>
        <path class="cls-1" d="M190.49,10.97c-.46.48-1.07.73-1.84.73s-1.37-.24-1.82-.73c-.46-.49-.69-1.08-.69-1.79s.23-1.31.68-1.8c.45-.49,1.07-.73,1.83-.73s1.38.24,1.84.73c.46.48.69,1.08.69,1.8s-.23,1.31-.69,1.8M190.12,7.71c-.37-.39-.87-.59-1.47-.59s-1.09.19-1.46.57c-.37.38-.55.88-.55,1.48s.19,1.08.56,1.47c.37.39.86.59,1.45.59s1.1-.2,1.47-.59c.37-.39.56-.88.56-1.47s-.19-1.08-.56-1.47M188.74,8.04c.29,0,.52.07.7.22.17.14.26.33.26.57,0,.31-.14.53-.42.67l.45.62v.11h-.54l-.44-.61h-.57v.61h-.5v-2.19h1.05ZM188.19,8.5v.66h.54c.29,0,.43-.11.43-.32,0-.23-.14-.34-.43-.34h-.54Z"/>
        <path class="cls-1" d="M185.43,20.56c.27-.97.57-1.78.9-2.44.33-.66.74-1.2,1.22-1.61.49-.42,1.06-.72,1.71-.9.66-.18,1.44-.3,2.34-.35v5.02c-.57-.11-1.01-.2-1.34-.24-.33-.05-.68-.07-1.07-.07-1.2,0-2.08.35-2.65,1.06-.57.7-.85,1.81-.85,3.31v6.79h-6.21v-15.58h5.94v5.02Z"/>
      </g>
      <g>
        <path class="cls-1" d="M52.79,14.69c-.05-.59-.12-1.18-.2-1.76-.08-.59-.18-1.18-.29-1.76-.19-.99-.42-1.98-.71-2.94-.43-1.44-.99-2.85-1.75-4.14-.66-1.12-1.45-2.13-2.51-2.89-.24-.17-.49-.32-.74-.46-1.49-.78-3.22-.94-4.83-.49-1.5.41-2.87,1.34-3.86,2.52-.74.89-1.28,1.96-1.46,3.12-.12.81-.1,1.66.06,2.47.33,1.66,1.4,3.45,1.4,3.45h0c2.95,5.04,11.55,19.75,11.55,19.75.62-1.05,1.16-2.15,1.62-3.28,1.7-4.19,2.14-9.04,1.73-13.58"/>
        <path class="cls-1" d="M9,29.81c-.49.34-.96.69-1.42,1.05-.47.37-.93.74-1.38,1.13-.76.66-1.5,1.35-2.2,2.08-1.03,1.09-1.97,2.28-2.72,3.58-.65,1.13-1.12,2.32-1.25,3.62-.03.29-.04.58-.03.87.06,1.68.79,3.26,1.98,4.43,1.11,1.09,2.59,1.82,4.11,2.09,1.14.2,2.34.13,3.43-.29.76-.3,1.49-.74,2.11-1.29,1.28-1.12,2.29-2.94,2.29-2.94h0c2.9-5.07,11.35-19.86,11.35-19.86-1.22-.01-2.44.07-3.65.24-4.47.62-8.9,2.66-12.63,5.27"/>
        <polygon class="cls-1" points="27.99 38.92 35.22 26.3 42.48 38.89 28.05 38.89 27.99 38.92"/>
        <path class="cls-1" d="M62.07,53.55c-.4-1.09-1.05-2.1-1.96-2.83-.64-.52-1.39-.92-2.17-1.19-.77-.26-1.65-.39-2.36-.46h-24.2c.6,1.06,1.28,2.08,2.03,3.04,2.77,3.57,6.74,6.39,10.87,8.32.54.25,1.08.49,1.62.71.55.22,1.11.44,1.67.63.95.34,1.92.63,2.9.86,1.46.35,2.96.58,4.46.57,1.3,0,2.57-.19,3.76-.72.26-.12.52-.26.77-.42,1.42-.89,2.43-2.31,2.85-3.93.4-1.51.29-3.16-.24-4.61"/>
      </g>
    </g>
  </g>
</svg>