<?xml version="1.0" encoding="UTF-8"?>
<svg id="Layer_2" data-name="Layer 2" xmlns="http://www.w3.org/2000/svg" viewBox="0 0 78.31 84.39">
  <defs>
    <style>
      .cls-1 {
        fill: #fff;
      }
    </style>
  </defs>
  <g id="Layer_1-2" data-name="Layer 1">
    <g>
      <path class="cls-1" d="M69.36,24.39h8.88c.03-.95,0-1.96-.62-2.74-.95-1.17-7.58-7.06-8.86-7.7L26.04,0l-1.41.27L0,15.03v19.2l.72.72h10.08c.08,0,1.2-1.12,1.2-1.2v-8.64c1.66-1.47,4.59-.42,6.72-.72v48.96c-3.4-1.39-9.74,2.37-3.63,2.91,6.98.62,14.95-.46,22.04-.1l.79-2.33-5.76-.48v-38.4c2.74-.03,4.47.55,4.8-2.63.22-2.12.35-9.16-.01-11.04-.25-1.31-2.76-3.2-3.35-4.57h34.32l5.52,5.28h-32.88c-.9,0-.9,2.4,0,2.4h25.68v12.72c0,.65,2.98,1.35,3.39,2,1.32,2.04-.18,4.84-2.64,4.5-2.04-.29-2-3.65-4.59-2.9-.21,8.1,11.92,6.85,9.98-1.58-.47-2.04-3.74-3.66-3.74-3.94v-10.08l.72-.72ZM25.91,5.67l2.89,8.64h-6.72c.33-.85,3.1-9.21,3.83-8.64ZM9.12,32.07H2.4v-6.96c1.66-1.47,4.59-.42,6.72-.72v7.68ZM18.72,21.99H2.4v-5.28h16.32v5.28ZM18.96,14.31H6.72l15.84-9.6-3.6,9.6ZM21.6,34.95h5.76c.64.57-5,5.74-5.76,6.24v-6.24ZM27.86,52.95c-1.43,2.52-4,4.32-6.26,6v-12c1.28.62,6.26,4.9,6.26,6ZM29.28,73.35l-5.76-.24,5.76-5.52v5.76ZM29.28,62.31c-.43.49-3.35-2.73-4.57-.97-1.37,1.95,3.11,2.98,3.12,3.61-2.14,2.07-3.55,4.52-6.23,6v-7.44c0-.6,6.54-6.95,7.68-7.92v6.72ZM29.28,49.83c-2.15-1.84-4.88-3.42-6.26-6,0-1.02,5.15-5.52,6.26-6.48v12.48ZM34.08,21.99l-5.96.43-.21,1.91,6.65.54v6.96l-.72.72h-12.24v-15.84h8.4l4.08,5.28ZM31.92,14.31l-3.84-10.56,31.44,10.56h-27.6Z"/>
      <path class="cls-1" d="M58.11,41.44c.03,1.82-5.46,1.01-6.88,1.3-4.8.96-7.44,6.19-7.09,10.71.63,8,10.31,8.52,9.14,19.66-.53,5.04-6.08,11.28-11.28,11.28H.72c-.95,0-.95-2.88,0-2.88h42.24c4.18-.85,7.82-6.13,7.82-10.32,0-7.05-6.2-8.28-8.44-13.54-3.45-8.11,1.61-16.84,10.27-17.85,1.85-.21,5.47-.82,5.5,1.64Z"/>
      <path class="cls-1" d="M77.52,53.19h-20.16c-.79,0-1.16-2.41,0-2.88,5.97.68,13.98-.92,19.68,0,.2.03,1.17.52,1.23.79.16.57-.23,2.09-.75,2.09Z"/>
    </g>
  </g>
</svg>