<?xml version="1.0" encoding="UTF-8"?>
<svg id="Layer_2" data-name="Layer 2" xmlns="http://www.w3.org/2000/svg" viewBox="0 0 87.91 78.84">
  <defs>
    <style>
      .cls-1 {
        fill: #fff;
      }
    </style>
  </defs>
  <g id="Layer_1-2" data-name="Layer 1">
    <g>
      <path class="cls-1" d="M87.12,64.92h-15.12v-4.8h14.64c1.29,0,1.71-1.77.75-2.67l-3.87-.21v-30.48c0-.79-1.38-1.92-2.26-1.33l-16.94,11.65v-11.52l-1.77-.13-16.95,11.65v-10.8c0-.08-.91-1.03-1.19-1.06l-17.53,11.86L23.3.58C22.85-.06,13.61-.08,12.22.1c-.67.08-1.25.11-1.71.69l-6.19,75.65H0v2.4h87.12c.44,0,1.12-1.41.5-1.94l-4.13-.67-.45-8.43c2.49.1,6.61.29,4.08-2.88ZM15.36,76.44H6.72L12.69,2.97c2.45-1.43,5.19.71,7.68-.4l.65.77,3.91,37.37c.64.48,1.21.08,1.81-.17,4.29-1.79,10.42-8.04,14.87-10.57.54-.3.87-.73,1.59-.57v10.8l1.18.73,17.54-11.53v10.8c0,.62,1.77,1.04,2.38.47l16.34-11.27v27.84h-8.64c-.2,0,.7-2.01-2.63-2.41-4.68-.56-3.33,1.12-5.05,2.17-2.27,1.38-21.14-.55-25.21.25-2.18-2.06-3.32-3.05-6.6-2.3-2.12.48-1.5,1.9-1.86,2.21-.22.21-4.65.57-5.95,1.02-4.05,1.37-9.34,6.94-9.34,11.3v6.96ZM69.6,57.24v10.08h-2.4v-10.08h2.4ZM64.32,60.12v4.8h-25.92v-4.8h25.92ZM35.52,57.24v10.08h-2.4v-10.08h2.4ZM17.76,76.44c-.89-8.25,3.13-16.93,12.48-16.32l-.05,4.75c-6.67.41-7.72,5.9-7.15,11.57h-5.28ZM80.64,76.44H25.44c.06-2.77-.62-6.06,1.94-7.9,3.76-2.7,2.55.94,5.95,1.21,4.69.37,4.31-1.69,5.78-1.96,3.56-.65,21.05-.5,24.99-.03,1.18.14.79,1.5,1.99,1.87,1.01.32,4.4.28,5.24-.35.59-.43.59-1.48.67-1.48h8.64v8.64Z"/>
      <path class="cls-1" d="M70.8,48.6c1.95.33,1.48,2.88,0,2.88h-8.64c-.09,0-1.11-1.01-1.16-1.27-.15-.49,1.04-1.61,1.16-1.61,2.46,0,6.45-.37,8.64,0Z"/>
      <path class="cls-1" d="M52.56,48.6c2.04,2.62,0,2.76-2.38,2.9s-9.88.76-6.74-2.9h9.12Z"/>
      <path class="cls-1" d="M33.84,48.6c1.18.19,1.74,1.44.92,2.45-.98.72-9.75.64-10.23-.09-.36-.54.13-2.36.67-2.36,2.66.3,6.11-.41,8.64,0Z"/>
    </g>
  </g>
</svg>