<?xml version="1.0" encoding="UTF-8"?>
<svg id="Layer_2" data-name="Layer 2" xmlns="http://www.w3.org/2000/svg" viewBox="0 0 541.35 215.74">
  <defs>
    <style>
      .cls-1 {
        fill: #fff;
      }
    </style>
  </defs>
  <g id="Layer_1-2" data-name="Layer 1">
    <g>
      <g>
        <path class="cls-1" d="M180.16,50.14c-.18-2.02-.41-4.02-.69-6-.28-2.01-.61-4.02-.99-6.01-.64-3.38-1.44-6.74-2.43-10.05-1.47-4.9-3.37-9.71-5.96-14.14-2.24-3.83-4.95-7.28-8.58-9.85-.81-.58-1.66-1.1-2.54-1.56-5.07-2.67-10.98-3.2-16.49-1.68-5.13,1.41-9.8,4.57-13.17,8.62-2.54,3.04-4.38,6.7-4.99,10.64-.42,2.76-.33,5.68.21,8.42,1.14,5.68,4.79,11.77,4.79,11.77h-.01c10.07,17.21,39.41,67.38,39.41,67.38,2.11-3.59,3.94-7.34,5.51-11.2,5.79-14.29,7.3-30.86,5.91-46.33"/>
        <path class="cls-1" d="M30.72,101.71c-1.66,1.17-3.28,2.37-4.86,3.59-1.6,1.25-3.18,2.54-4.72,3.86-2.61,2.25-5.13,4.6-7.49,7.11-3.51,3.72-6.74,7.76-9.28,12.22-2.2,3.86-3.83,7.93-4.26,12.36-.09.99-.13,1.98-.09,2.98.22,5.72,2.7,11.11,6.77,15.12,3.79,3.73,8.85,6.21,14.04,7.12,3.9.68,8,.45,11.71-.99,2.61-1.01,5.09-2.54,7.19-4.39,4.35-3.82,7.81-10.02,7.81-10.02h0c9.89-17.3,38.73-67.77,38.73-67.77-4.16-.05-8.33.24-12.46.81-15.27,2.11-30.38,9.08-43.1,18"/>
        <polygon class="cls-1" points="95.53 132.81 120.19 89.74 144.95 132.72 95.72 132.72 95.53 132.81"/>
        <path class="cls-1" d="M211.83,182.73c-1.36-3.72-3.59-7.16-6.69-9.66-2.18-1.76-4.74-3.14-7.39-4.05-2.64-.9-5.64-1.34-8.06-1.56h-82.58c2.04,3.63,4.37,7.1,6.92,10.39,9.44,12.18,23.01,21.82,37.09,28.39,1.84.86,3.69,1.67,5.54,2.42,1.88.77,3.78,1.49,5.69,2.17,3.25,1.14,6.55,2.15,9.91,2.95,4.98,1.19,10.09,1.97,15.22,1.96,4.44-.02,8.78-.63,12.84-2.47.9-.42,1.78-.89,2.63-1.42,4.85-3.04,8.28-7.88,9.73-13.41,1.35-5.15.97-10.77-.83-15.72"/>
      </g>
      <g>
        <path class="cls-1" d="M301.15,119.17l-6.46-15.43h-18.71l-5.39,15.43h-8l23.94-55.94h7.43l24.76,55.94h-17.56ZM284.64,79.07l-7.27,20.42h15.69l-8.41-20.42Z"/>
        <path class="cls-1" d="M337.26,85.99c.54-.89,1.28-1.72,2.21-2.5,2.29-1.83,5.28-2.75,8.99-2.75,4.03,0,7.22,1.06,9.56,3.17.76.72,1.32,1.46,1.68,2.21.35.75.64,1.84.86,3.29.87-3,2.33-5.19,4.37-6.58,2.04-1.39,4.81-2.08,8.29-2.08,4.69,0,8.17,1.25,10.46,3.75.98,1.11,1.67,2.38,2.08,3.79.41,1.42.61,3.35.61,5.79v25.1h-14.7v-24.43c0-2.11-.06-3.67-.17-4.67-.11-1-.3-1.81-.57-2.42-.27-.56-.7-1-1.27-1.33-.57-.33-1.21-.5-1.92-.5-2.02,0-3.57,1.1-4.66,3.29-1.09,2.2-1.63,5.32-1.63,9.38v20.68h-14.71v-24.68c0-3.33-.29-5.63-.86-6.88-.57-1.25-1.62-1.87-3.15-1.87-1.03,0-1.97.33-2.82,1-.85.67-1.51,1.56-2,2.66-.49,1.11-.85,2.35-1.06,3.71-.22,1.36-.33,3.16-.33,5.38v20.68h-14.71v-37.51h13.73v8.25c.6-1.72,1.17-3.03,1.72-3.92"/>
        <path class="cls-1" d="M404.09,109.5c0,4.78,2.15,7.17,6.46,7.17,1.58,0,2.85-.43,3.8-1.29.95-.86,1.43-2.02,1.43-3.46s-.44-2.53-1.31-3.25c-.87-.72-2.5-1.39-4.9-2l-4.41-1.17c-2.12-.61-3.76-1.14-4.9-1.58-1.14-.44-2.21-1.06-3.19-1.83-2.62-2.17-3.92-5-3.92-8.5,0-4,1.5-7.17,4.49-9.5,3-2.34,7.11-3.5,12.34-3.5,6.97,0,11.87,1.89,14.71,5.67.76,1,1.29,1.95,1.59,2.83.3.89.5,1.89.61,3h-10.38c-.11-2.72-.64-4.71-1.59-5.96-.95-1.25-2.47-1.88-4.53-1.88-1.52,0-2.78.42-3.76,1.25-.98.84-1.47,1.89-1.47,3.17s.49,2.22,1.47,3c.98.78,2.56,1.47,4.74,2.08l4.49,1.17c4.14,1.06,7.16,2.56,9.07,4.5,1.91,1.95,2.86,4.5,2.86,7.67,0,4.17-1.51,7.42-4.53,9.76-3.02,2.34-7.26,3.5-12.71,3.5s-9.91-1.01-12.91-3.04c-3-2.03-4.55-4.96-4.66-8.79h11.11v1Z"/>
        <path class="cls-1" d="M459.41,81.66v4.17h-9.56v21.76c0,3,.32,5.05.98,6.17.65,1.11,1.93,1.67,3.84,1.67,1.2,0,2.83-.33,4.9-1v4.17c-1.74.5-3.58.88-5.51,1.13-1.93.25-3.85.38-5.76.38-2.67,0-4.87-.32-6.62-.96-1.75-.64-3.16-1.68-4.25-3.13-.49-.61-.9-1.25-1.23-1.92-.32-.67-.58-1.4-.77-2.21-.19-.81-.33-1.72-.41-2.75-.08-1.03-.12-2.21-.12-3.54v-19.76h-4.99v-4.17h4.99v-9.5l14.95-3.59v13.09h9.56Z"/>
        <path class="cls-1" d="M487.14,85.74c-.68-1.17-1.81-1.75-3.39-1.75-2.12,0-3.51,1.06-4.16,3.17-.17.5-.27,1.11-.33,1.83-.05.73-.11,1.89-.16,3.5h-14.3c.11-3.5,1.55-6.34,4.33-8.5,2.94-2.33,7.87-3.5,14.79-3.5,8.06,0,13.48,1.56,16.26,4.67,1.09,1.11,1.85,2.51,2.29,4.21.44,1.7.65,3.99.65,6.88v22.93h-13.97v-7.67c-.93,3.11-2.4,5.36-4.41,6.75-2.01,1.39-4.82,2.08-8.42,2.08-4.25,0-7.54-.99-9.89-2.96-2.34-1.97-3.51-4.71-3.51-8.21s1.01-6.13,3.02-8.04c2.02-1.92,5.23-3.24,9.64-3.96,1.42-.28,3.09-.47,5.03-.58,1.93-.11,4.45-.19,7.56-.25v-4.59c0-2.83-.34-4.83-1.02-6M479.71,101.87c-1.23,1.41-1.84,3.54-1.84,6.38,0,4.61,1.47,6.92,4.41,6.92,1.36,0,2.55-.57,3.56-1.71,1.01-1.14,1.65-2.68,1.92-4.63.11-.83.2-2.07.29-3.71.08-1.64.12-3.51.12-5.63h-2.61c-2.67.17-4.62.96-5.84,2.38"/>
        <path class="cls-1" d="M270.26,186.39v-55.61h21.08c2.34,0,4.43.06,6.25.17,1.82.11,3.45.29,4.86.54,1.42.25,2.68.58,3.8,1,1.12.42,2.17.93,3.15,1.54,2.07,1.28,3.71,3.09,4.9,5.42,1.2,2.33,1.8,4.97,1.8,7.92,0,11.29-7.49,16.93-22.47,16.93h-7.27v22.09h-16.1ZM294.57,159.38c1.23-.44,2.22-1.17,2.98-2.17.76-1,1.31-2.3,1.63-3.88.33-1.58.49-3.51.49-5.79,0-4.83-.93-8.23-2.78-10.17-.82-.84-1.84-1.43-3.06-1.79-1.23-.36-2.9-.54-5.03-.54h-2.45v25.01h3.76c1.74,0,3.23-.22,4.45-.67"/>
        <path class="cls-1" d="M348.29,186.39v-9.59c-.44,1.95-.91,3.42-1.43,4.42-.52,1-1.29,1.97-2.33,2.92-2.4,2.11-5.64,3.17-9.72,3.17-2.45,0-4.63-.39-6.54-1.17-1.91-.78-3.43-1.92-4.58-3.42-.93-1.17-1.58-2.51-1.96-4.04-.38-1.53-.57-3.6-.57-6.21v-23.59h14.95v24.34c0,1.95.07,3.45.2,4.5.14,1.06.4,1.89.78,2.5.71,1.28,1.82,1.92,3.35,1.92,1.09,0,2.1-.33,3.02-1,.93-.67,1.66-1.56,2.21-2.67.54-1.17.93-2.53,1.14-4.09.22-1.56.32-3.56.32-6v-19.51h14.96v37.51h-13.81Z"/>
        <path class="cls-1" d="M386.53,153.21c.54-.89,1.28-1.72,2.21-2.5,2.29-1.83,5.28-2.75,8.99-2.75,4.03,0,7.22,1.06,9.56,3.17.76.72,1.32,1.46,1.68,2.21.35.75.64,1.85.86,3.29.87-3,2.33-5.2,4.37-6.59,2.04-1.39,4.81-2.08,8.29-2.08,4.69,0,8.17,1.25,10.46,3.75.98,1.11,1.67,2.38,2.09,3.79.41,1.42.61,3.35.61,5.79v25.09h-14.7v-24.42c0-2.11-.06-3.67-.17-4.67-.11-1-.3-1.81-.57-2.42-.27-.56-.7-1-1.27-1.33-.57-.33-1.21-.5-1.92-.5-2.02,0-3.57,1.1-4.66,3.29-1.09,2.2-1.64,5.32-1.64,9.38v20.67h-14.71v-24.68c0-3.34-.28-5.63-.86-6.88-.57-1.25-1.62-1.87-3.15-1.87-1.03,0-1.97.33-2.82,1-.84.67-1.51,1.56-2,2.67-.49,1.11-.85,2.35-1.06,3.71-.22,1.36-.33,3.16-.33,5.38v20.67h-14.71v-37.51h13.73v8.25c.6-1.72,1.17-3.03,1.72-3.92"/>
        <path class="cls-1" d="M458.99,155.54c2.13-5.06,6.27-7.59,12.42-7.59,5.28,0,9.34,1.72,12.18,5.17,2.83,3.45,4.25,8.39,4.25,14.84s-1.4,11.1-4.21,14.46c-2.8,3.36-6.82,5.04-12.05,5.04-5.99,0-10.08-2.36-12.25-7.08v27.43h-14.96v-58.94h14.63v6.67ZM460.96,156.79c-1.25,2.56-1.88,6.23-1.88,11.01s.64,8.45,1.92,11.01c1.28,2.56,3.09,3.83,5.43,3.83,2.07,0,3.55-1.13,4.45-3.38.9-2.25,1.35-6.02,1.35-11.3s-.35-8.78-1.06-11.01c-.38-1.22-.99-2.19-1.84-2.92-.84-.72-1.81-1.08-2.9-1.08-2.4,0-4.22,1.28-5.47,3.83"/>
        <path class="cls-1" d="M503.6,176.72c0,4.78,2.15,7.17,6.45,7.17,1.58,0,2.85-.43,3.8-1.29.95-.86,1.43-2.01,1.43-3.46s-.44-2.53-1.31-3.25c-.87-.73-2.51-1.39-4.9-2l-4.41-1.17c-2.12-.61-3.76-1.14-4.9-1.59-1.14-.44-2.21-1.05-3.18-1.83-2.62-2.17-3.92-5-3.92-8.5,0-4,1.5-7.17,4.49-9.5,3-2.34,7.11-3.5,12.34-3.5,6.97,0,11.87,1.89,14.71,5.67.76,1,1.29,1.95,1.59,2.84.3.89.5,1.89.61,3h-10.38c-.11-2.72-.64-4.71-1.59-5.96-.95-1.25-2.46-1.88-4.53-1.88-1.52,0-2.78.42-3.76,1.25-.98.83-1.47,1.89-1.47,3.17s.49,2.22,1.47,3c.98.78,2.56,1.48,4.74,2.08l4.49,1.17c4.14,1.06,7.16,2.55,9.07,4.5,1.91,1.95,2.86,4.5,2.86,7.67,0,4.17-1.51,7.42-4.53,9.76-3.02,2.33-7.26,3.5-12.71,3.5s-9.91-1.01-12.91-3.04c-2.99-2.03-4.55-4.96-4.66-8.79h11.11v1Z"/>
        <path class="cls-1" d="M538.67,70.65c-1.11,1.16-2.58,1.75-4.44,1.75s-3.29-.59-4.39-1.76c-1.1-1.17-1.65-2.6-1.65-4.31s.55-3.16,1.64-4.32c1.09-1.17,2.57-1.75,4.41-1.75s3.33.58,4.44,1.75c1.11,1.16,1.67,2.6,1.67,4.32s-.56,3.16-1.67,4.33M537.78,62.78c-.9-.95-2.08-1.41-3.54-1.41s-2.62.46-3.51,1.38c-.89.92-1.33,2.11-1.33,3.57s.45,2.6,1.34,3.54c.9.94,2.06,1.41,3.49,1.41s2.64-.47,3.54-1.41c.9-.94,1.36-2.12,1.36-3.54s-.46-2.61-1.36-3.54M534.46,63.59c.7,0,1.26.17,1.68.52.42.35.64.81.64,1.38,0,.74-.34,1.28-1.01,1.61l1.08,1.49v.26h-1.29l-1.05-1.46h-1.37v1.46h-1.21v-5.26h2.52ZM533.14,64.71v1.59h1.29c.7,0,1.04-.26,1.04-.78,0-.55-.34-.81-1.04-.81h-1.29Z"/>
        <path class="cls-1" d="M526.48,93.74c.65-2.34,1.38-4.29,2.16-5.88.79-1.58,1.77-2.88,2.94-3.88,1.17-1,2.55-1.72,4.13-2.17,1.58-.44,3.46-.72,5.64-.84v12.09c-1.36-.28-2.44-.47-3.23-.58-.79-.11-1.65-.17-2.57-.17-2.89,0-5.01.85-6.37,2.54-1.36,1.69-2.04,4.35-2.04,7.96v16.34h-14.95v-37.51h14.3v12.09Z"/>
      </g>
    </g>
  </g>
</svg>