<?xml version="1.0" encoding="UTF-8"?>
<svg id="Layer_2" data-name="Layer 2" xmlns="http://www.w3.org/2000/svg" viewBox="0 0 13.91 13.78">
  <defs>
    <style>
      .cls-1 {
        fill: #e6fafd;
      }
    </style>
  </defs>
  <g id="Layer_1-2" data-name="Layer 1">
    <g id="bS4hlT">
      <path class="cls-1" d="M13.9,11.26c-.37,2.73-4.03,2.91-6.05,2.07C4.29,11.86-.13,7.43,0,3.32.07,1.27,1.36-.29,3.53.04l1.81,3.01c.58,1.34-1.49,1.69-1.55,2.44-.02.2.47.94.61,1.15.7,1.07,1.73,2.13,2.8,2.83.26.17,1,.67,1.28.6.66-.16.95-1.79,2.17-1.59l2.87,1.64c.17.15.34.48.37.71.01.1.01.33,0,.43Z"/>
    </g>
  </g>
</svg>