<?xml version="1.0" encoding="UTF-8"?>
<svg id="Layer_2" data-name="Layer 2" xmlns="http://www.w3.org/2000/svg" viewBox="0 0 46.74 46.97">
  <defs>
    <style>
      .cls-1 {
        fill: #1a3968;
      }
    </style>
  </defs>
  <g id="Layer_1-2" data-name="Layer 1">
    <g>
      <path class="cls-1" d="M46.02,26.54c-.15-.15-.52-.39-.72-.48-1.23-.53-2.81-.84-4.14-1.39-1.12-.47-2.22-1.03-3.28-1.61-.23-2.54.13-5.24-.05-7.76-.11-1.56-.61-2.64-1.61-3.81-2.21-2.57-5.14-5.22-7.56-7.65-1.77-1.78-2.75-3.49-5.57-3.71-5.81-.44-12.16.33-18.03,0C2.36.45.24,2.58,0,5.3v36.37c.24,2.75,2.42,4.9,5.16,5.16,9.03-.36,18.42.47,27.41,0,.65-.03,1.75-.14,2.38-.22.63-.09,3.65-2.2,4.36-2.72,4.32-3.13,7.07-7.51,7.37-12.95.07-1.25.24-3.49-.67-4.39ZM25.53,3.89l8.33,8.44h-5.68c-1.16,0-2.66-1.94-2.66-3.07V3.89ZM5.27,44.63c-1.48,0-3.08-1.82-3.07-3.28V5.82c.13-1.99,1.29-3.26,3.28-3.48,5.6.3,11.64-.41,17.19,0,.23.02.44.09.67.11v7.24c0,2.39,2.93,4.95,5.26,4.95h6.93v7.08c-1.59-.92-3.23.73-4.62,1.48-1.4.75-2.9,1.41-4.39,1.96-1.6.6-4.01.71-4.3,2.79-.33,2.37.29,5.94,1.14,8.18,1.4,3.65,4.06,6.4,7.27,8.52H5.27ZM44.5,30.2c-.13,3.38-1.31,6.72-3.55,9.27-1.81,2.06-4.14,3.36-6.36,4.9h-.2c-2.16-1.49-4.54-2.75-6.3-4.74-2.85-3.21-3.92-7.31-3.59-11.56,2.31-.54,4.66-1.48,6.77-2.56,1.1-.56,2.15-1.3,3.26-1.81,3.08,1.96,6.43,3.42,9.93,4.46.09.14.06,1.72.05,2.04Z"/>
      <path class="cls-1" d="M25.48,24.63H7.87c-1.46-.06-1.64-2.02-.18-2.27l17.79-.03c1.59.14,1.6,2.15,0,2.29Z"/>
      <path class="cls-1" d="M23.29,17.96H7.87c-1.6-.14-1.59-2.16,0-2.29l15.77.07c.16.08.38.15.51.28.74.74.15,1.91-.85,1.94Z"/>
      <path class="cls-1" d="M18.81,31.29c-3.39.38-7.47-.28-10.94,0-1.46-.06-1.64-2.02-.18-2.27l11.12-.03c1.57.15,1.64,2.11,0,2.29Z"/>
      <path class="cls-1" d="M18.81,37.96c-3.39.38-7.47-.28-10.94,0-1.46-.06-1.64-2.02-.18-2.27l11.12-.03c1.57.14,1.64,2.11,0,2.29Z"/>
      <path class="cls-1" d="M16.62,11.29c-2.75-.26-6.17.35-8.85,0-1.48-.2-1.5-2.11.09-2.28,2.69-.3,5.91.23,8.65,0,.3,0,.74.14.95.35.74.74.15,1.91-.85,1.94Z"/>
      <path class="cls-1" d="M38.79,31.79l-4.98,4.91c-.43.24-.81.1-1.18-.15s-1.95-1.84-2.25-2.23c-.94-1.23.29-2.42,1.41-1.72.31.2,1.38,1.54,1.6,1.5l3.71-3.7c.14-.12.32-.21.5-.24.91-.13,1.54.79,1.2,1.62Z"/>
    </g>
  </g>
</svg>