<?xml version="1.0" encoding="UTF-8"?>
<svg id="Layer_2" data-name="Layer 2" xmlns="http://www.w3.org/2000/svg" viewBox="0 0 44.55 42.69">
  <defs>
    <style>
      .cls-1 {
        fill: #1a3968;
      }
    </style>
  </defs>
  <g id="Layer_1-2" data-name="Layer 1">
    <path class="cls-1" d="M43.41,14.84c-.66-.39-1.54-.4-2.3-.49-3.7-.41-7.44-.57-11.14-.96-.16-.02-.31-.05-.46-.11L24.4,1.32c-.96-1.75-3.21-1.74-4.23-.07l-5.14,12.05-13.22,1.26c-.97.25-1.54.97-1.81,1.89v.87l.4.86,10.12,9.03-2.94,13.05c.08,1.8,1.65,2.9,3.36,2.22l11.38-6.71,11.54,6.81c1.59.47,3-.62,3.11-2.25l-2.94-13.13,9.8-8.63c1.08-1.1.9-2.94-.43-3.73ZM40.72,17.62c-2.76,2.65-5.98,5.04-8.79,7.65-.69.72-.78,1.35-.67,2.33l2.67,11.81-10.38-6.19c-.84-.41-1.51-.48-2.38-.09l-10.56,6.28,2.67-11.81c.12-.97.01-1.61-.67-2.33-2.9-2.63-6-5.08-8.88-7.74-.11-.1-.28-.22-.26-.39.24-.01.49.02.74,0,3.48-.31,7.08-.56,10.53-.96,1.5-.17,2.11-.3,2.82-1.71,1.71-3.43,2.93-7.32,4.6-10.8l.19-.11,4.6,10.85c.72,1.47,1.26,1.58,2.84,1.77,3.45.4,7.05.65,10.53.96.24.02.49-.01.74,0,.1.08-.28.41-.35.48Z"/>
  </g>
</svg>