<?xml version="1.0" encoding="UTF-8"?>
<svg id="Layer_2" data-name="Layer 2" xmlns="http://www.w3.org/2000/svg" viewBox="0 0 47.64 47.64">
  <defs>
    <style>
      .cls-1 {
        fill: #1a3968;
      }
    </style>
  </defs>
  <g id="Layer_1-2" data-name="Layer 1">
    <g>
      <path class="cls-1" d="M47.62,13.86c-.31-1.81-1.2-3.2-2.76-4.17-5.68-2.67-11.23-6.16-16.92-8.75-.37-.17-.88-.39-1.26-.51-.63-.2-1.3-.27-1.93-.44h-1.86c-1.11.1-2.36.58-3.37,1.05-4.93,2.27-10.23,5.17-15.05,7.74-.54.29-1.19.59-1.7.9-3.69,2.24-3.69,7.4,0,9.64l17.45,8.97c2.58,1.06,5.2.93,7.72-.22,5.69-2.59,11.24-6.08,16.92-8.75,1.44-.85,2.57-2.48,2.76-4.17.05-.41-.03-.88,0-1.3ZM43.35,15.87c-5.04,2.63-10.06,5.37-15.16,7.91-2.36,1.17-3.84,2.16-6.57,1.09L4.78,16.2c-1.24-.62-1.44-2.29-.34-3.16L21.55,4.2c.48-.2,1.08-.4,1.59-.45,1.01-.11,1.94.05,2.87.42l17.38,9.04c.69.78.68,1.91-.05,2.66Z"/>
      <path class="cls-1" d="M47.62,25.31v.84l-.81,1.1c-6.73,3.51-13.31,7.35-20.14,10.65-2.53.78-4.8.51-7.16-.61-6.29-2.97-12.37-6.95-18.65-10-1.82-1.2-.51-3.95,1.51-3.37l19.17,10.23c2.16.89,3.54.49,5.52-.5,6.12-3.06,11.98-6.67,18.11-9.7,1.11-.41,2.09.35,2.44,1.37Z"/>
      <path class="cls-1" d="M47.62,34.61v.74l-.46.88c-6.73,3.8-13.56,7.52-20.48,10.96-2.52.78-4.81.5-7.16-.61-5.94-2.81-11.68-6.58-17.62-9.45-.44-.34-.99-.44-1.38-.85-1.3-1.39.07-3.59,1.87-3.08l19.17,10.23c2.16.89,3.54.49,5.52-.5,6.12-3.05,11.98-6.67,18.11-9.7,1.11-.41,2.09.35,2.44,1.37Z"/>
    </g>
  </g>
</svg>