<?xml version="1.0" encoding="UTF-8"?>
<svg id="Layer_2" data-name="Layer 2" xmlns="http://www.w3.org/2000/svg" viewBox="0 0 15.64 10.67">
  <defs>
    <style>
      .cls-1 {
        fill: #e6fafd;
      }
    </style>
  </defs>
  <g id="Layer_1-2" data-name="Layer 1">
    <g id="in1TPo">
      <g>
        <path class="cls-1" d="M14.94,10.63l-14.03.03c-.87-.08-1.02-.91-.85-1.63l4.4-3.55c.07-.02.13,0,.19.03l3.14,1.61,3.19-1.61.19-.03,4.4,3.55c.14.63.07,1.39-.64,1.59Z"/>
        <path class="cls-1" d="M15.62,1.64l-7.81,3.97L.02,1.64C-.05.92,0,.13.86,0h13.92c.87.13.91.92.84,1.64Z"/>
        <polygon class="cls-1" points="3.6 5.04 .02 7.85 .02 3.15 3.6 5.04"/>
        <polygon class="cls-1" points="15.63 3.15 15.63 7.85 12.04 5.04 15.63 3.15"/>
      </g>
    </g>
  </g>
</svg>