<?xml version="1.0" encoding="UTF-8"?>
<svg id="Layer_2" data-name="Layer 2" xmlns="http://www.w3.org/2000/svg" viewBox="0 0 46.44 46.44">
  <defs>
    <style>
      .cls-1 {
        fill: #00489e;
      }
    </style>
  </defs>
  <g id="Layer_1-2" data-name="Layer 1">
    <g>
      <path class="cls-1" d="M23.22,0C10.42,0,0,10.42,0,23.22s10.42,23.22,23.22,23.22,23.22-10.42,23.22-23.22S36.02,0,23.22,0ZM23.22,44.44c-11.7,0-21.22-9.52-21.22-21.22S11.52,2,23.22,2s21.22,9.52,21.22,21.22-9.52,21.22-21.22,21.22Z"/>
      <polygon class="cls-1" points="32.38 23.92 23.22 32.72 14.06 23.92 15.7 22.56 22.01 28.62 22.01 13.73 24.42 13.73 24.42 28.63 30.74 22.56 32.38 23.92"/>
    </g>
  </g>
</svg>