<?xml version="1.0" encoding="UTF-8"?>
<svg id="Layer_2" data-name="Layer 2" xmlns="http://www.w3.org/2000/svg" viewBox="0 0 46.1 45.35">
  <defs>
    <style>
      .cls-1 {
        fill: #1a3968;
      }
    </style>
  </defs>
  <g id="Layer_1-2" data-name="Layer 1">
    <g>
      <path class="cls-1" d="M33.79.02c-1.02.1-2.3.58-3.1,1.22L6.12,25.83c-.36.46-.55.99-.65,1.56-.3,1.73-.58,4.76-.62,6.52-.05,2.26,1.41,3.05,3.47,2.96,1.65-.07,3.99-.27,5.62-.51.68-.1,1.36-.3,1.91-.71,8.46-8.3,17-16.61,25.12-25.25C43.95,5.94,38.52-.45,33.79.02ZM26.16,20.85l-12.11,12.12c-1.92.38-3.92.46-5.89.6l.4-5.18.2-.71L28.32,8.13l5.28,5.28-7.43,7.44ZM35.95,11.04l-5.26-5.18c.74-.8,2-2.44,3.09-2.63,1.75-.29,3.14,1.06,4.14,2.34,1.86,2.38-.39,3.92-1.97,5.46Z"/>
      <path class="cls-1" d="M45.12,45.24c-14.56.22-29.16.02-43.74.1-1.86-.34-1.82-2.83.02-3.2l43.1-.02c1.78.2,2.18,2.35.61,3.13Z"/>
    </g>
  </g>
</svg>