<?xml version="1.0" encoding="UTF-8"?>
<svg id="Layer_2" data-name="Layer 2" xmlns="http://www.w3.org/2000/svg" viewBox="0 0 45.02 50.99">
  <defs>
    <style>
      .cls-1 {
        fill: #1a3968;
      }
    </style>
  </defs>
  <g id="Layer_1-2" data-name="Layer 1">
    <path class="cls-1" d="M44.05,12.07L22.91,0h-.8L.97,12.07c-.56.3-.96.75-.97,1.42v24.01c.01.67.41,1.12.97,1.42,6.84,3.57,13.43,8.08,20.28,11.59,1.25.64,1.27.64,2.52,0,6.85-3.51,13.44-8.02,20.28-11.59.56-.3.96-.75.97-1.42V13.49c-.01-.67-.41-1.12-.97-1.42ZM21.02,46.9L2.99,36.6v-20.47l18.02,10.16v20.61ZM22.47,23.7L4.59,13.49,22.39,3.3c.21-.04.35.02.53.13l17.52,10.06-17.96,10.21ZM42.03,36.6l-18.03,10.31v-20.61l18.03-10.16v20.47Z"/>
  </g>
</svg>