<?xml version="1.0" encoding="UTF-8"?>
<svg id="Layer_2" data-name="Layer 2" xmlns="http://www.w3.org/2000/svg" viewBox="0 0 35.09 49.18">
  <defs>
    <style>
      .cls-1 {
        fill: #1a3968;
      }
    </style>
  </defs>
  <g id="Layer_1-2" data-name="Layer 1">
    <g>
      <path class="cls-1" d="M35.06,43.86c-.07-.66-.38-1.36-.61-1.98-3.07-8.21-7.09-16.28-10.08-24.5-.48-1.32-.84-2.66-.92-4.08-.11-1.95-.2-5.52.01-7.39.17-1.48,1.57-2.07,1.72-3.57.08-.81.2-2.02-.67-2.35h-13.93c-.86.34-.76,1.56-.67,2.35.16,1.46,1.56,2.09,1.72,3.47-.17,3.5.49,7.28-.56,10.65-.24.77-.62,1.59-.92,2.35C6.88,27.2,3.05,35.4.02,43.86c-.27,2.67,1.7,5.07,4.36,5.32h26.13c2.76-.14,4.83-2.56,4.55-5.32ZM13.56,13.69c.14-2.17.19-5.82-.01-7.96-.06-.67-.32-1.44-.68-2.01-.36-.58-1.08-1.03-1.04-1.79h11.43c.03.84-.79,1.32-1.17,2.05-.33.64-.51,1.41-.56,2.13-.15,2.11-.11,5.17,0,7.3.2,3.66,2.06,6.9,3.36,10.23h-14.6c1.09-3.3,3.03-6.38,3.26-9.94ZM30.51,47.26H4.67c-1.75-.15-2.88-1.54-2.73-3.26h1.87c.3,0,.71-.67.69-1-.06-1.03-.98-.85-1.65-.92-.13-.01-.17.05-.13-.13l1.06-2.54c.81-.14,2.24.36,2.51-.71.27-1.05-.84-1.36-1.66-1.23-.1-.09.83-2.29.94-2.47.08-.13.08-.19.26-.22.75-.14,2.21.38,2.43-.74.2-1.06-1-1.3-1.8-1.18l1.05-2.63c.19-.28,2.39.4,2.68-.7.31-1.18-.91-1.38-1.8-1.27l1.05-2.63,16.25-.02,7.3,17.77c.68,1.84-.52,3.7-2.45,3.89Z"/>
      <path class="cls-1" d="M28.41,40.41c-.7.7-1.35.06-1.68-.61-1.28-2.54-2.1-5.59-3.35-8.17-.24-1.29,1.4-1.72,1.87-.53.84,2.65,2.52,5.42,3.3,8.04.13.44.25.89-.13,1.27Z"/>
      <path class="cls-1" d="M30.05,43.04c0,.53-.43.96-.96.96s-.96-.43-.96-.96.43-.96.96-.96.96.43.96.96Z"/>
    </g>
  </g>
</svg>