<?xml version="1.0" encoding="UTF-8"?>
<svg id="Layer_2" data-name="Layer 2" xmlns="http://www.w3.org/2000/svg" viewBox="0 0 36.3 42.29">
  <defs>
    <style>
      .cls-1 {
        fill: #1a3968;
      }
    </style>
  </defs>
  <g id="Layer_1-2" data-name="Layer 1">
    <g>
      <path class="cls-1" d="M36.23,6.82l-.05-.23L18.09,0,.05,6.58l-.05,15.71c.13,9.4,8.52,17.57,17.22,19.85,1.26.33,1.76.03,2.93-.38,8.7-3.05,15.63-9.98,16.09-19.57.24-5.06-.19-10.31,0-15.38ZM20.75,38.32c-.54.23-2.19.92-2.68.9-.56-.02-2.61-.93-3.23-1.21-6.49-2.99-11.42-8.4-11.83-15.81l.02-13.53,15.11-5.46,15.05,5.46.02,13.53c-.4,7.69-5.62,13.27-12.46,16.12Z"/>
      <path class="cls-1" d="M28.17,16.3l-13.03,13.01-7.1-7.03,2.1-2.1,5,4.89,10.97-10.93c.09-.02.12.04.18.08.2.13,1.7,1.64,1.84,1.84.06.08.13.13.05.24Z"/>
    </g>
  </g>
</svg>