<?xml version="1.0" encoding="UTF-8"?>
<svg id="Layer_2" data-name="Layer 2" xmlns="http://www.w3.org/2000/svg" viewBox="0 0 87.83 78.09">
  <defs>
    <style>
      .cls-1 {
        fill: #fff;
      }
    </style>
  </defs>
  <g id="Layer_1-2" data-name="Layer 1">
    <g>
      <path class="cls-1" d="M87.11,13.51h-32.4l4.73,9.44-.68,1.09-2.16-.78c-1.25-1.84-4.06-9.42-5.97-9.76-.68-.12-.88-.03-.67.67l2.84,9.17c-.4.52-1.99.32-2.43.03-1.09-.72-2.02-7.97-3.11-9.37-.73-.92-1.08-.44-1.67.23v9.36h-2.4v-9.36c0-.29-1.08-.98-1.43-.72l-2.94,10.03-2.35.05c-.72-.7,2-7.6,2.31-8.98.16-.72.38-1.28-.63-1.1-.82-.11-.96.6-1.3,1.1-.89,1.3-4.35,8.63-4.78,8.9-.55.35-2.04-.05-2.8.08l4.8-10.08H.71c-.9,0-.9-2.4,0-2.4h33.6l3.6-.95C26,6.06,14.13,2.36,1.29,2.85-3.74-1.42,8.89.3,11.27.55c11.37,1.23,22.56,4.87,32.72,9.97C57.36,4.04,72.03-.09,87.04.14c3.38,4.04-5.17,2.59-7.61,2.81-9.89.91-19.34,3.71-28.56,7.21-.14.48,2.04.95,2.16.95h34.08c.9,0,.9,2.4,0,2.4Z"/>
      <path class="cls-1" d="M83.94,32.66l-1.91-.15c-.65-3.41-1.48-4.29-4.98-4.62-20.98-1.95-44.97,1.5-66.26.02-5.61.63-2.1,4.75-6.48,4.8-.44-3.59,1.18-6.75,5.03-7.21h69.15c3.65-.14,6.85,3.72,5.45,7.16Z"/>
      <path class="cls-1" d="M27.83,30.31l-.38,1.78L2.79,76.55c-1.27,2.29-3.55,1.3-2.54-1.1L24.55,31.59c.65-1.4,1.9-1.4,3.28-1.28Z"/>
      <path class="cls-1" d="M87.83,76.19l-.73,1.64c-1.32.4-2.19-1.7-2.71-2.56-8.19-13.64-14.52-29.21-22.91-42.85l-.53-2.11c1.38-.12,2.63-.12,3.28,1.28l23.6,44.6Z"/>
      <polygon class="cls-1" points="36.89 30.44 22.56 78.05 19.84 77.23 34.16 29.62 36.89 30.44"/>
      <polygon class="cls-1" points="68.77 77.3 66.1 78.09 52.14 30.61 54.81 29.83 68.77 77.3"/>
      <path class="cls-1" d="M45.59,47.35v29.76c0,.9-2.4.9-2.4,0v-29.76c.32-1.13,2.4-.72,2.4,0Z"/>
      <path class="cls-1" d="M75.83,31.51v10.08c0,.09-1.01,1.11-1.27,1.16-.49.15-1.61-1.04-1.61-1.16,0-2.15-.44-9.15,0-10.56.21-.67,1.43-.84,2.09-.75.27.06.79,1.13.79,1.23Z"/>
      <polygon class="cls-1" points="45.59 31.03 45.59 42.79 43.19 42.79 43.19 30.31 44.81 30.37 45.59 31.03"/>
      <path class="cls-1" d="M15.35,31.03v11.28l-1.63.45-.77-.69v-11.04c0-.9,2.4-.9,2.4,0Z"/>
    </g>
  </g>
</svg>