<?xml version="1.0" encoding="UTF-8"?>
<svg id="Layer_2" data-name="Layer 2" xmlns="http://www.w3.org/2000/svg" viewBox="0 0 87.8 80.13">
  <defs>
    <style>
      .cls-1 {
        fill: #fff;
      }
    </style>
  </defs>
  <g id="Layer_1-2" data-name="Layer 1">
    <g>
      <path class="cls-1" d="M60.83,76.82h-8.64l-.72-.72v-24l-.72-.72h-14.16v24.96c-.47-.16-1.04.48-1.2.48H12.35l-.72-.72v-39.84c0-.75,1.66-1.26,2.4-.72v38.4h20.16v-24.96h18.96l.72.72v24.24h6.96c1.69,0,1.69,2.88,0,2.88Z"/>
      <path class="cls-1" d="M86.03,39.65L43.62,3.43,1.6,39.63c-2.02.12-1.93-1.31-.81-2.69L44.03,0l43.29,37.12c1.21,1.41-.1,3.13-1.29,2.53Z"/>
      <path class="cls-1" d="M83.4,60.49c-.71-1.38-6.47-11.08-7.05-11.42-2.02-1.19-5.35,5.1-6.36,6.67-3.95,6.13-8.69,13.31-3.41,20.13,5.02,6.5,15.88,5.43,18.87-2.27,2.06-5.3.34-8.45-2.05-13.11ZM67.56,65.79c.56-1.62,6.92-12.94,7.67-12.96.88,0,7.96,12.4,8.28,14.26,2.52,14.66-20.9,12.97-15.95-1.3Z"/>
      <path class="cls-1" d="M76.43,35.54v8.4c0,.9-2.4.9-2.4,0v-8.4h2.4Z"/>
      <path class="cls-1" d="M76.43,72.99c.14,3.55-4.5,1.68-5.92-.14-1.58-2.01-2.47-5.65,1.12-5.15-.17,3.38,1.66,4.8,4.8,5.29Z"/>
    </g>
  </g>
</svg>